<?xml version="1.0" encoding="utf-8"?>
<!-- Generator: Adobe Illustrator 27.5.0, SVG Export Plug-In . SVG Version: 6.00 Build 0)  -->
<svg version="1.1" xmlns="http://www.w3.org/2000/svg" xmlns:xlink="http://www.w3.org/1999/xlink" x="0px" y="0px"
	 viewBox="0 0 500 500" xml:space="preserve">
<g id="Background">
	<rect y="0" style="fill-rule:evenodd;clip-rule:evenodd;fill:#FFFFFF;" width="400" height="400"/>
</g>
<g id="Objects">
	<g>
		<path style="fill-rule:evenodd;clip-rule:evenodd;fill:#000035;" d="M245.216,143.87c85.755,0,155.327,69.572,155.327,155.327
			H90.007C90.007,213.442,159.461,143.87,245.216,143.87L245.216,143.87z"/>
		<path style="fill-rule:evenodd;clip-rule:evenodd;fill:#000035;" d="M121.545,224.427c41.342,0,74.888,33.428,74.888,74.77H46.775
			C46.775,257.855,80.203,224.427,121.545,224.427L121.545,224.427z"/>
		<path style="fill-rule:evenodd;clip-rule:evenodd;fill:#000035;" d="M378.455,224.427c41.342,0,74.888,33.428,74.888,74.77
			H303.685C303.685,257.855,337.231,224.427,378.455,224.427L378.455,224.427z"/>
		<path style="fill-rule:evenodd;clip-rule:evenodd;fill:#FFFFFF;" d="M309.355,169.265c1.417,0,2.599,1.181,2.599,2.599
			c0,1.417-1.181,2.599-2.599,2.599s-2.599-1.181-2.599-2.599C306.756,170.447,307.938,169.265,309.355,169.265L309.355,169.265z"/>
		<path style="fill-rule:evenodd;clip-rule:evenodd;fill:#FFFFFF;" d="M358.375,211.434c1.417,0,2.599,1.181,2.599,2.599
			s-1.181,2.599-2.599,2.599c-1.417,0-2.599-1.181-2.599-2.599S356.957,211.434,358.375,211.434L358.375,211.434z"/>
		<path style="fill-rule:evenodd;clip-rule:evenodd;fill:#FFFFFF;" d="M301.323,219.702c1.417,0,2.599,1.181,2.599,2.599
			c0,1.536-1.181,2.599-2.599,2.599s-2.599-1.063-2.599-2.599C298.724,220.884,299.905,219.702,301.323,219.702L301.323,219.702z"/>
		<path style="fill-rule:evenodd;clip-rule:evenodd;fill:#FFFFFF;" d="M182.731,164.895c1.417,0,2.599,1.063,2.599,2.599
			c0,1.417-1.181,2.481-2.599,2.481c-1.417,0-2.599-1.063-2.599-2.481C180.132,165.958,181.313,164.895,182.731,164.895
			L182.731,164.895z"/>
		<path style="fill-rule:evenodd;clip-rule:evenodd;fill:#FFFFFF;" d="M128.396,253.485c1.417,0,2.599,1.063,2.599,2.481
			c0,1.536-1.181,2.599-2.599,2.599s-2.599-1.063-2.599-2.599C125.797,254.548,126.979,253.485,128.396,253.485L128.396,253.485z"/>
		<path style="fill-rule:evenodd;clip-rule:evenodd;fill:#FFFFFF;" d="M431.845,260.217c1.536,0,2.599,1.063,2.599,2.48
			c0,1.536-1.063,2.599-2.599,2.599c-1.417,0-2.48-1.063-2.48-2.599C429.365,261.28,430.428,260.217,431.845,260.217
			L431.845,260.217z"/>
		<path style="fill-rule:evenodd;clip-rule:evenodd;fill:#FFFFFF;" d="M420.151,251.949c0.709,0,1.299,0.591,1.299,1.299
			c0,0.709-0.591,1.299-1.299,1.299c-0.709,0-1.299-0.591-1.299-1.299C418.852,252.54,419.442,251.949,420.151,251.949
			L420.151,251.949z"/>
		<path style="fill-rule:evenodd;clip-rule:evenodd;fill:#FFFFFF;" d="M418.852,280.416c0.709,0,1.299,0.591,1.299,1.299
			c0,0.709-0.591,1.299-1.299,1.299s-1.299-0.591-1.299-1.299C417.553,281.006,418.143,280.416,418.852,280.416L418.852,280.416z"/>
		<path style="fill-rule:evenodd;clip-rule:evenodd;fill:#FFFFFF;" d="M444.248,279.943c0.709,0,1.299,0.591,1.299,1.299
			s-0.591,1.299-1.299,1.299c-0.709,0-1.299-0.591-1.299-1.299S443.539,279.943,444.248,279.943L444.248,279.943z"/>
		<path style="fill-rule:evenodd;clip-rule:evenodd;fill:#FFFFFF;" d="M346.917,226.79c0.709,0,1.299,0.591,1.299,1.299
			c0,0.709-0.591,1.299-1.299,1.299c-0.709,0-1.299-0.591-1.299-1.299C345.618,227.38,346.208,226.79,346.917,226.79L346.917,226.79
			z"/>
		<path style="fill-rule:evenodd;clip-rule:evenodd;fill:#FFFFFF;" d="M345.618,200.921c0.709,0,1.299,0.591,1.299,1.299
			c0,0.709-0.591,1.299-1.299,1.299c-0.709,0-1.299-0.591-1.299-1.299C344.318,201.512,344.909,200.921,345.618,200.921
			L345.618,200.921z"/>
		<path style="fill-rule:evenodd;clip-rule:evenodd;fill:#FFFFFF;" d="M283.959,164.186c0.709,0,1.299,0.472,1.299,1.299
			c0,0.709-0.591,1.299-1.299,1.299c-0.709,0-1.299-0.591-1.299-1.299C282.66,164.659,283.251,164.186,283.959,164.186
			L283.959,164.186z"/>
		<path style="fill-rule:evenodd;clip-rule:evenodd;fill:#FFFFFF;" d="M180.841,208.717c0.709,0,1.299,0.591,1.299,1.299
			c0,0.709-0.591,1.299-1.299,1.299c-0.709,0-1.299-0.591-1.299-1.299C179.542,209.308,180.132,208.717,180.841,208.717
			L180.841,208.717z"/>
		<path style="fill-rule:evenodd;clip-rule:evenodd;fill:#FFFFFF;" d="M164.777,183.322c0.709,0,1.299,0.591,1.299,1.299
			c0,0.709-0.591,1.299-1.299,1.299c-0.709,0-1.299-0.591-1.299-1.299C163.477,183.912,164.068,183.322,164.777,183.322
			L164.777,183.322z"/>
		<path style="fill-rule:evenodd;clip-rule:evenodd;fill:#FFFFFF;" d="M81.975,253.248c0.709,0,1.299,0.591,1.299,1.299
			s-0.591,1.299-1.299,1.299c-0.709,0-1.299-0.591-1.299-1.299S81.266,253.248,81.975,253.248L81.975,253.248z"/>
		<path style="fill-rule:evenodd;clip-rule:evenodd;fill:#FFFFFF;" d="M135.837,280.18c0.709,0,1.299,0.591,1.299,1.299
			s-0.591,1.299-1.299,1.299c-0.709,0-1.299-0.591-1.299-1.299S135.129,280.18,135.837,280.18L135.837,280.18z"/>
		<path style="fill-rule:evenodd;clip-rule:evenodd;fill:#FFFFFF;" d="M150.248,263.643c0.827,0,1.299,0.473,1.299,1.299
			c0,0.709-0.472,1.299-1.299,1.299c-0.709,0-1.181-0.591-1.181-1.299C149.067,264.115,149.539,263.643,150.248,263.643
			L150.248,263.643z"/>
	</g>
	<g>
		<path style="fill:#666666;" d="M248.642,240.137l17.6,14.647l17.718,14.765c7.323,6.024,8.386,16.891,2.244,24.214
			c-3.426,4.134-8.268,6.26-13.229,6.26l0,0H237.42h-35.436c-9.568,0-17.364-7.678-17.364-17.245c0-5.906,2.953-11.103,7.56-14.292
			l16.537-13.702l17.718-14.765C233.05,234.585,242.381,234.822,248.642,240.137L248.642,240.137z"/>
		<path style="fill-rule:evenodd;clip-rule:evenodd;fill:#333333;" d="M271.557,259.154l12.403,10.395l0,0h-93.196
			c0.472-0.354,0.945-0.709,1.417-1.063l11.221-9.331H271.557z"/>
		<path style="fill-rule:evenodd;clip-rule:evenodd;fill:#CCCCCC;" d="M256.319,243.799l-2.599,3.189l-6.378-5.315l2.599-3.189
			L256.319,243.799z M247.697,236.83l-2.126,3.544h-0.118v-0.118h-0.118l0,0l-0.118-0.118h-0.118l0,0l-0.118-0.118l0,0l-0.118-0.118
			h-0.118l0,0l-0.118-0.118h-0.118l0,0l-0.118-0.118l0,0h-0.118h-0.118v-0.118h-0.118h-0.118v-0.118h-0.118l0,0l-0.118-0.118h-0.118
			l0,0h-0.118l-0.118-0.118l0,0h-0.118h-0.118v-0.118h-0.118l0,0h-0.118l-0.118-0.118l0,0h-0.118h-0.118v-0.118h-0.118h-0.118l0,0
			h-0.118l-0.118-0.118l0,0h-0.118h-0.118l0,0l-0.118-0.118h-0.118l0,0h-0.118h-0.118v-0.118H241.2h-0.118l0,0h-0.118h-0.118v-0.118
			h-0.118h-0.118l0,0h-0.118h-0.118l0,0l-0.118-0.118h-0.118l0,0h-0.118h-0.118l0,0h-0.118h-0.118h-0.118v-0.118h-0.118h-0.118l0,0
			h-0.118h-0.118l0,0h-0.118h-0.118l0,0h-0.118l0,0l0.236-4.134h0.118h0.118h0.118l0,0h0.118h0.118h0.118h0.118h0.118l0.118,0.118
			h0.118l0,0h0.118h0.118h0.118h0.118l0.118,0.118h0.118l0,0h0.118h0.118h0.118h0.118l0.118,0.118h0.118l0,0h0.118h0.118
			l0.118,0.118h0.118h0.118h0.118l0,0l0.118,0.118h0.118h0.118h0.118l0.118,0.118h0.118l0,0h0.118l0.118,0.118h0.118h0.118h0.118
			v0.118h0.118h0.118l0.118,0.118h0.118h0.118l0,0l0.118,0.118h0.118h0.118l0.118,0.118h0.118l0,0l0.118,0.118h0.118h0.118
			l0.118,0.118l0,0h0.118l0.118,0.118h0.118l0.118,0.118l0,0h0.118l0.118,0.118h0.118h0.118v0.118h0.118l0.118,0.118h0.118
			l0.118,0.118l0,0h0.118l0.118,0.118h0.118l0.118,0.118l0,0l0.118,0.118h0.118l0.118,0.118l0,0h0.118L247.697,236.83
			L247.697,236.83z M234.349,234.113l0.709,4.134h-0.118l0,0h-0.118h-0.118v0.118h-0.118h-0.118l0,0h-0.118h-0.118l0,0l-0.118,0.118
			h-0.118h-0.118l0,0h-0.118h-0.118v0.118h-0.118h-0.118l0,0h-0.118h-0.118v0.118h-0.118h-0.118l0,0h-0.118l-0.118,0.118l0,0h-0.118
			h-0.118v0.118h-0.118h-0.118l0,0l-0.118,0.118h-0.118l0,0h-0.118v0.118h-0.118h-0.118l0,0l-0.118,0.118h-0.118l0,0l-0.118,0.118
			h-0.118l0,0h-0.118l-0.118,0.118l0,0h-0.118l-0.118,0.118l0,0h-0.118v0.118h-0.118h-0.118v0.118h-0.118h-0.118v0.118h-0.118l0,0
			l-0.118,0.118h-0.118l0,0l-0.118,0.118h-0.118v0.118h-0.118l0,0l-0.118,0.118h-0.118v0.118h-0.118l0,0l-0.118,0.118h-0.118v0.118
			h-0.118l0,0l-0.118,0.118h-0.118v0.118l0,0l-2.481-3.307l0,0l0.118-0.118l0,0l0.118-0.118l0.118-0.118h0.118v-0.118h0.118
			l0.118-0.118h0.118v-0.118h0.118l0.118-0.118h0.118l0.118-0.118l0,0l0.118-0.118h0.118l0.118-0.118l0,0l0.118-0.118h0.118h0.118
			l0.118-0.118l0,0l0.118-0.118h0.118l0.118-0.118h0.118l0,0l0.118-0.118h0.118l0.118-0.118h0.118v-0.118h0.118h0.118l0.118-0.118
			h0.118h0.118v-0.118h0.118l0.118-0.118h0.118h0.118l0.118-0.118l0,0h0.118l0.118-0.118h0.118h0.118l0.118-0.118l0,0h0.118h0.118
			l0.118-0.118h0.118h0.118v-0.118h0.118h0.118h0.118l0.118-0.118h0.118h0.118l0,0l0.118-0.118h0.118h0.118h0.118l0.118-0.118h0.118
			l0,0h0.118h0.118l0.118-0.118h0.118h0.118h0.118l0,0l0.118-0.118h0.118h0.118h0.118h0.118h0.118L234.349,234.113L234.349,234.113z
			 M222.655,240.491l2.599,3.189l-6.378,5.315l-2.599-3.189L222.655,240.491z M213.088,248.405l2.599,3.189l-5.67,4.725
			l-0.709,0.591l-2.599-3.189l0.709-0.591L213.088,248.405z M203.52,256.319l2.599,3.189l-6.26,5.315l-2.717-3.189L203.52,256.319z
			 M193.952,264.352l2.717,3.189l-3.189,2.599h-0.118v0.118h-0.118l0,0l0,0l-0.118,0.118l0,0h-0.118v0.118l0,0h-0.118l0,0v0.118
			h-0.118l0,0l-0.118,0.118l0,0l0,0h-0.118v0.118h-0.118l0,0v0.118h-0.118l0,0v0.118h-0.118l0,0l0,0l-0.118,0.118l0,0h-0.118v0.118
			l0,0h-0.118v0.118l0,0h-0.118v0.118l0,0h-0.118v0.118l0,0h-0.118v0.118h-0.118l0,0v0.118h-0.118l0,0v0.118h-0.118l0,0v0.118
			h-0.118l0,0v0.118h-0.118l0,0v0.118h-0.118l0,0v0.118h-0.118l0,0v0.118l0,0h-0.118l-3.071-2.717l0,0l0.118-0.118l0,0l0.118-0.118
			l0,0l0,0l0.118-0.118l0,0l0.118-0.118l0,0v-0.118h0.118v-0.118h0.118l0,0l0.118-0.118l0,0v-0.118h0.118v-0.118h0.118l0,0
			l0.118-0.118l0,0v-0.118h0.118l0,0l0.118-0.118l0,0l0.118-0.118l0,0l0.118-0.118l0,0h0.118v-0.118l0,0l0.118-0.118l0,0h0.118
			v-0.118h0.118l0,0l0.118-0.118l0,0l0.118-0.118l0,0h0.118v-0.118h0.118v-0.118h0.118l0,0v-0.118h0.118l0,0l0.118-0.118l0,0h0.118
			v-0.118h0.118v-0.118h0.118l0,0l0.118-0.118l0,0L193.952,264.352z M184.857,273.683l3.662,2.008l0,0l-0.118,0.118l0,0l0,0v0.118
			h-0.118v0.118l0,0v0.118l0,0h-0.118v0.118l0,0v0.118l0,0l-0.118,0.118l0,0v0.118l0,0l0,0l-0.118,0.118l0,0v0.118l0,0v0.118h-0.118
			v0.118l0,0l0,0v0.118l0,0l-0.118,0.118l0,0v0.118l0,0v0.118l0,0l-0.118,0.118l0,0l0,0v0.118l0,0v0.118h-0.118v0.118l0,0v0.118l0,0
			v0.118l0,0l-0.118,0.118l0,0v0.118l0,0l0,0v0.118l0,0l-0.118,0.118l0,0v0.118l0,0v0.118l0,0v0.118l0,0l-0.118,0.118l0,0v0.118l0,0
			v0.118l0,0v0.118l0,0v0.118l0,0l-0.118,0.118l0,0v0.118l0,0l0,0v0.118l0,0v0.118l0,0v0.118l0,0l-0.118,0.118l0,0v0.118l0,0v0.118
			l0,0v0.118l0,0v0.118l0,0v0.118l0,0v0.118l0,0v0.118l0,0l-0.118,0.118l0,0v0.118l0,0v0.118l0,0v0.118l0,0v0.118l0,0v0.118v0.118
			l0,0v0.118l0,0v0.118l0,0v0.118l0,0v0.118l0,0v0.118l0,0h-4.134v-0.118l0,0v-0.118v-0.118l0,0v-0.118v-0.118l0,0v-0.118l0,0
			v-0.118v-0.118l0,0v-0.118v-0.118l0,0v-0.118v-0.118l0,0v-0.118v-0.118h0.118v-0.118v-0.118l0,0v-0.118l0,0v-0.118v-0.118l0,0
			v-0.118v-0.118l0,0v-0.118l0.118-0.118l0,0v-0.118l0,0v-0.118v-0.118l0,0v-0.118v-0.118l0,0l0.118-0.118l0,0v-0.118v-0.118l0,0
			v-0.118v-0.118l0,0l0.118-0.118l0,0v-0.118v-0.118l0,0v-0.118l0,0v-0.118l0.118-0.118l0,0v-0.118l0,0v-0.118v-0.118h0.118v-0.118
			v-0.118l0,0v-0.118l0,0l0.118-0.118v-0.118l0,0v-0.118l0,0l0.118-0.118v-0.118l0,0v-0.118l0,0v-0.118h0.118V276.4v-0.118l0,0
			l0.118-0.118l0,0v-0.118v-0.118l0,0l0.118-0.118l0,0v-0.118l0,0l0.118-0.118v-0.118l0,0v-0.118l0,0l0.118-0.118l0,0V275.1v-0.118
			h0.118v-0.118l0,0v-0.118h0.118v-0.118v-0.118l0,0l0.118-0.118l0,0v-0.118h0.118v-0.118l0,0v-0.118l0.118-0.118l0,0v-0.118l0,0
			L184.857,273.683z M183.085,287.267l4.016-0.945h0.118v0.118v0.118v0.118l0,0l0.118,0.118v0.118v0.118l0,0l0.118,0.118v0.118
			v0.118l0,0v0.118l0.118,0.118v0.118l0,0v0.118l0.118,0.118v0.118l0,0l0.118,0.118v0.118v0.118l0,0l0.118,0.118v0.118l0,0
			l0.118,0.118v0.118v0.118h0.118v0.118v0.118h0.118v0.118v0.118l0.118,0.118l0,0v0.118l0.118,0.118l0,0v0.118l0.118,0.118l0,0
			l0.118,0.118v0.118l0,0l0.118,0.118v0.118h0.118v0.118v0.118h0.118v0.118l0.118,0.118l0,0l0.118,0.118v0.118l0,0l0.118,0.118
			v0.118h0.118v0.118h0.118v0.118l0.118,0.118l0,0v0.118l0.118,0.118l0,0l0.118,0.118l0,0l0.118,0.118v0.118h0.118v0.118h0.118
			v0.118l0,0l-3.071,2.717l0,0l-0.118-0.118v-0.118h-0.118l-0.118-0.118v-0.118l-0.118-0.118h-0.118v-0.118l-0.118-0.118v-0.118
			l-0.118-0.118h-0.118v-0.118l-0.118-0.118V294h-0.118v-0.118l-0.118-0.118l-0.118-0.118v-0.118l-0.118-0.118l0,0l-0.118-0.118
			v-0.118l-0.118-0.118v-0.118l-0.118-0.118l0,0l-0.118-0.118v-0.118l-0.118-0.118v-0.118l-0.118-0.118l0,0l-0.118-0.118v-0.118
			l-0.118-0.118v-0.118l-0.118-0.118v-0.118l-0.118-0.118l0,0l-0.118-0.118v-0.118v-0.118l-0.118-0.118v-0.118l-0.118-0.118v-0.118
			v-0.118l-0.118-0.118v-0.118h-0.118v-0.118v-0.118l-0.118-0.118v-0.118v-0.118l-0.118-0.118v-0.118l-0.118-0.118v-0.118v-0.118
			l-0.118-0.118v-0.118v-0.118v-0.118l-0.118-0.118v-0.118v-0.118l-0.118-0.118l0,0v-0.118v-0.118l-0.118-0.118v-0.118v-0.118
			v-0.118L183.085,287.267z M190.763,298.488l2.362-3.307h0.118v0.118h0.118h0.118v0.118h0.118l0.118,0.118l0,0l0.118,0.118h0.118
			l0,0l0.118,0.118h0.118v0.118h0.118h0.118v0.118h0.118h0.118v0.118h0.118l0.118,0.118l0,0h0.118l0.118,0.118h0.118l0,0
			l0.118,0.118h0.118l0,0l0.118,0.118h0.118l0,0l0.118,0.118h0.118h0.118v0.118h0.118h0.118l0,0l0.118,0.118h0.118h0.118v0.118
			h0.118h0.118h0.118v0.118h0.118h0.118h0.118v0.118h0.118h0.118h0.118v0.118h0.118h0.118h0.118h0.118v0.118h0.118h0.118h0.118l0,0
			h0.118l0.118,0.118h0.118l0,0h0.118h0.118h0.118l0.118,0.118l0,0h0.118h0.118h0.118h0.118l0,0l-0.591,4.134l0,0h-0.118h-0.118
			l-0.118-0.118h-0.118h-0.118h-0.118h-0.118h-0.118l-0.118-0.118h-0.118h-0.118h-0.118h-0.118l-0.118-0.118h-0.118h-0.118h-0.118
			l-0.118-0.118h-0.118h-0.118h-0.118l-0.118-0.118h-0.118h-0.118l-0.118-0.118h-0.118h-0.118l-0.118-0.118h-0.118h-0.118h-0.118
			l-0.118-0.118h-0.118h-0.118l-0.118-0.118h-0.118v-0.118h-0.118h-0.118l-0.118-0.118h-0.118h-0.118l-0.118-0.118h-0.118
			l-0.118-0.118h-0.118h-0.118l-0.118-0.118l0,0l-0.118-0.118h-0.118l-0.118-0.118h-0.118h-0.118l-0.118-0.118h-0.118l-0.118-0.118
			l0,0l-0.118-0.118h-0.118l-0.118-0.118h-0.118l-0.118-0.118h-0.118v-0.118h-0.118l-0.118-0.118h-0.118l-0.118-0.118h-0.118v-0.118
			h-0.118l-0.118-0.118h-0.118l-0.118-0.118l-0.118-0.118l0,0L190.763,298.488z M203.756,302.032v-4.134h8.268v4.134H203.756z
			 M216.159,302.032v-4.134h8.268v4.134H216.159z M228.561,302.032v-4.134h8.268v4.134H228.561z M240.964,302.032v-4.134h8.386
			v4.134H240.964z M253.485,302.032v-4.134h8.268v4.134H253.485z M265.887,302.032v-4.134h5.079h2.008v1.89v0.118v0.118v1.772v0.236
			h0.118l1.063-1.063l0.945-0.945v2.008h-2.126H265.887z M270.966,297.897L270.966,297.897h2.008h0.118l0,0h0.118l0,0h0.118l0,0l0,0
			h0.118l0,0h0.118l0,0h0.118l0,0l0,0h0.118l0,0h0.118l0,0l0,0l0.236,2.008 M275.1,299.905v0.118 M275.1,299.905h-2.126
			 M278.762,301.087l-1.181-3.898l0,0l0,0h0.118v-0.118h0.118l0,0l0,0h0.118l0,0h0.118v-0.118h0.118l0,0l0,0h0.118l0,0h0.118v-0.118
			l0,0h0.118l0,0h0.118l0,0v-0.118h0.118l0,0h0.118l0,0l0,0l0.118-0.118l0,0h0.118l0,0l0,0h0.118v-0.118h0.118l0,0l0,0h0.118l0,0
			l0.118-0.118l0,0l0,0h0.118l0,0v-0.118h0.118l0,0h0.118l0,0v-0.118h0.118l0,0h0.118l0,0v-0.118h0.118l0,0l0,0h0.118v-0.118h0.118
			l0,0l0,0l0.118-0.118l0,0h0.118l0,0l0,0l0.118-0.118l0,0l0,0h0.118v-0.118h0.118l0,0l0,0h0.118v-0.118l0,0h0.118l0,0v-0.118h0.118
			l0,0h0.118v-0.118l0,0h0.118l0,0v-0.118h0.118l0,0l0,0l0.118-0.118l0,0h0.118v-0.118l0,0h0.118l0,0v-0.118h0.118l0,0l0,0
			l0.118-0.118l0,0l0,0l0.118-0.118l0,0l0,0h0.118v-0.118l0,0h0.118v-0.118h0.118l0,0l0,0l0.118-0.118l0,0l0,0l0.118-0.118l0,0l0,0
			l0.118-0.118l0,0l0,0h0.118v-0.118l0,0h0.118v-0.118l0,0h0.118v-0.118l0,0h0.118v-0.118l0,0l2.953,2.953l0,0l-0.118,0.118l0,0
			h-0.118v0.118l0,0l-0.118,0.118l0,0h-0.118v0.118h-0.118v0.118l0,0h-0.118v0.118h-0.118v0.118h-0.118l0,0v0.118h-0.118l0,0
			l-0.118,0.118l0,0l-0.118,0.118l0,0l0,0l-0.118,0.118l0,0h-0.118v0.118h-0.118l0,0l-0.118,0.118l0,0v0.118h-0.118l0,0
			l-0.118,0.118l0,0h-0.118v0.118h-0.118l0,0l-0.118,0.118l0,0l0,0l-0.118,0.118l0,0h-0.118v0.118h-0.118l0,0l-0.118,0.118l0,0
			h-0.118l0,0l-0.118,0.118l0,0l0,0l-0.118,0.118l0,0h-0.118v0.118h-0.118l0,0h-0.118v0.118h-0.118l0,0l-0.118,0.118l0,0h-0.118
			v0.118h-0.118l0,0h-0.118v0.118h-0.118l0,0h-0.118v0.118h-0.118l0,0v0.118h-0.118l0,0h-0.118v0.118h-0.118l0,0h-0.118v0.118
			h-0.118l0,0h-0.118v0.118h-0.118l0,0h-0.118v0.118h-0.118l0,0h-0.118l0,0l-0.118,0.118l0,0h-0.118l0,0l-0.118,0.118h-0.118l0,0
			h-0.118l0,0l-0.118,0.118l0,0h-0.118l0,0h-0.118v0.118h-0.118l0,0h-0.118l0,0l-0.118,0.118l0,0h-0.118l0,0h-0.118v0.118h-0.118
			l0,0h-0.118l0,0h-0.118v0.118h-0.118l0,0h-0.118H278.762L278.762,301.087z M289.511,292.7l-3.544-2.126l0,0l0.118-0.118v-0.118
			l0,0l0.118-0.118v-0.118l0.118-0.118l0,0v-0.118l0.118-0.118l0,0v-0.118l0.118-0.118l0,0l0.118-0.118v-0.118v-0.118h0.118v-0.118
			v-0.118h0.118v-0.118v-0.118l0.118-0.118l0,0v-0.118v-0.118l0.118-0.118l0,0v-0.118l0.118-0.118l0,0v-0.118v-0.118l0.118-0.118
			l0,0v-0.118v-0.118l0.118-0.118l0,0v-0.118v-0.118v-0.118h0.118v-0.118v-0.118v-0.118l0,0l0.118-0.118v-0.118v-0.118l0,0v-0.118
			l0.118-0.118v-0.118l0,0v-0.118v-0.118v-0.118l0,0l0.118-0.118v-0.118v-0.118v-0.118l0,0v-0.118v-0.118v-0.118h0.118v-0.118
			v-0.118v-0.118l0,0v-0.118v-0.118v-0.118v-0.118l0,0v-0.118l0,0l4.134,0.236l0,0v0.118v0.118v0.118v0.118v0.118v0.118v0.118v0.118
			l-0.118,0.118v0.118v0.118v0.118v0.118v0.118v0.118l-0.118,0.118v0.118v0.118v0.118v0.118v0.118l-0.118,0.118v0.118v0.118v0.118
			l0,0l-0.118,0.118v0.118v0.118v0.118l-0.118,0.118v0.118v0.118v0.118l-0.118,0.118v0.118v0.118v0.118l-0.118,0.118v0.118v0.118
			l-0.118,0.118v0.118v0.118l-0.118,0.118v0.118l0,0l-0.118,0.118v0.118v0.118l-0.118,0.118v0.118v0.118l-0.118,0.118v0.118
			l-0.118,0.118v0.118v0.118l-0.118,0.118v0.118h-0.118v0.118v0.118l-0.118,0.118v0.118l-0.118,0.118v0.118l-0.118,0.118v0.118
			l-0.118,0.118v0.118h-0.118v0.118l-0.118,0.118v0.118l-0.118,0.118v0.118L289.511,292.7L289.511,292.7z M291.991,279.353
			l-4.134,0.709l0,0v-0.118v-0.118v-0.118l0,0v-0.118l-0.118-0.118v-0.118l0,0v-0.118v-0.118v-0.118h-0.118v-0.118v-0.118v-0.118
			l0,0l-0.118-0.118v-0.118v-0.118l0,0l-0.118-0.118v-0.118v-0.118l0,0v-0.118l-0.118-0.118v-0.118l0,0l-0.118-0.118v-0.118l0,0
			v-0.118l-0.118-0.118v-0.118l0,0l-0.118-0.118v-0.118l0,0v-0.118l-0.118-0.118V276.4l0,0l-0.118-0.118v-0.118l0,0l-0.118-0.118
			v-0.118l0,0l-0.118-0.118v-0.118l-0.118-0.118l0,0v-0.118l-0.118-0.118l0,0v-0.118l-0.118-0.118l0,0l-0.118-0.118v-0.118l0,0
			l-0.118-0.118v-0.118h-0.118v-0.118l-0.118-0.118l0,0v-0.118l-0.118-0.118l0,0l-0.118-0.118v-0.118h-0.118v-0.118l-0.118-0.118
			l0,0l-0.118-0.118l0,0v-0.118l3.189-2.481h0.118v0.118l0.118,0.118l0.118,0.118l0,0l0.118,0.118v0.118l0.118,0.118l0.118,0.118
			v0.118h0.118v0.118l0.118,0.118v0.118l0.118,0.118v0.118h0.118v0.118l0.118,0.118l0.118,0.118v0.118l0.118,0.118v0.118h0.118
			v0.118v0.118l0.118,0.118v0.118l0.118,0.118v0.118l0.118,0.118l0,0l0.118,0.118v0.118l0.118,0.118v0.118v0.118l0.118,0.118v0.118
			l0.118,0.118v0.118l0,0l0.118,0.118v0.118l0.118,0.118v0.118v0.118l0.118,0.118v0.118v0.118l0.118,0.118v0.118v0.118h0.118v0.118
			v0.118l0.118,0.118v0.118v0.118v0.118l0.118,0.118v0.118v0.118l0.118,0.118v0.118v0.118v0.118l0.118,0.118v0.118v0.118v0.118
			l0.118,0.118l0,0v0.118v0.118v0.118l0.118,0.118v0.118v0.118V279.353z M285.022,267.659l-2.599,3.189l-6.378-5.315l2.599-3.189
			L285.022,267.659z M275.455,259.745l-2.599,3.189l-6.378-5.315l2.599-3.189L275.455,259.745z M265.887,251.713l-2.599,3.189
			l-6.378-5.197l2.599-3.189L265.887,251.713z"/>
		<path style="fill:#666666;" d="M200.094,259.154h5.788l0.236,0.354l-6.26,5.315l-2.717-3.189L200.094,259.154z M268.368,259.154
			h6.497l0.591,0.591l-2.599,3.189L268.368,259.154z M283.487,269.549h-2.717l-4.725-4.016l2.599-3.189l6.378,5.315L283.487,269.549
			z M194.189,269.549h-6.378l0,0l0.118-0.118l0,0v-0.118h0.118v-0.118h0.118l0,0l0.118-0.118l0,0v-0.118h0.118v-0.118h0.118l0,0
			l0.118-0.118l0,0v-0.118h0.118l0,0l0.118-0.118l0,0l0.118-0.118l0,0l0.118-0.118l0,0h0.118v-0.118l0,0l0.118-0.118l0,0h0.118
			v-0.118h0.118l0,0l0.118-0.118l0,0l0.118-0.118l0,0h0.118v-0.118h0.118v-0.118h0.118l0,0v-0.118h0.118l0,0l0.118-0.118l0,0h0.118
			v-0.118h0.118v-0.118h0.118l0,0l0.118-0.118l0,0l3.071-2.48l2.717,3.189L194.189,269.549z"/>
		<path style="fill-rule:evenodd;clip-rule:evenodd;fill:#333333;" d="M267.068,294.118L267.068,294.118h5.906
			c3.425,0,6.497-1.536,8.741-4.134c3.898-4.725,3.307-11.93-1.536-15.946l-35.318-29.412l0,0
			c-4.252-3.544-10.395-3.662-14.647-0.118l-34.491,28.703l-0.236,0.236c-3.071,2.126-4.961,5.552-4.961,9.331
			c0,6.26,5.079,11.339,11.458,11.339H267.068z"/>
		<polygon style="fill-rule:evenodd;clip-rule:evenodd;" points="274.746,269.549 262.344,259.154 212.615,259.154 200.094,269.549 
					"/>
		<path style="fill-rule:evenodd;clip-rule:evenodd;fill:#1A1A1A;" d="M237.42,241.909c-2.599,0-5.079,0.827-7.205,2.599
			l-34.491,28.703l-0.236,0.236c-3.071,2.126-4.961,5.552-4.961,9.331c0,6.26,5.079,11.339,11.458,11.339h35.436V241.909z"/>
		<polygon style="fill-rule:evenodd;clip-rule:evenodd;" points="212.615,259.154 200.094,269.549 237.42,269.549 237.42,259.154 		
			"/>
		<path style="fill-rule:evenodd;clip-rule:evenodd;fill:#999999;" d="M271.202,271.675c5.788,0,10.395,4.725,10.395,10.395
			c0,5.788-4.607,10.395-10.395,10.395c-5.67,0-10.276-4.607-10.276-10.395C260.926,276.4,265.533,271.675,271.202,271.675
			L271.202,271.675z"/>
		<path style="fill-rule:evenodd;clip-rule:evenodd;fill:#999999;" d="M203.638,271.675c5.67,0,10.276,4.725,10.276,10.395
			c0,5.788-4.607,10.395-10.276,10.395c-5.788,0-10.395-4.607-10.395-10.395C193.244,276.4,197.85,271.675,203.638,271.675
			L203.638,271.675z"/>
		<path style="fill-rule:evenodd;clip-rule:evenodd;fill:#CCCCCC;" d="M271.202,271.675c5.788,0,10.395,4.725,10.395,10.395v0.118
			h-20.671v-0.118C260.926,276.4,265.533,271.675,271.202,271.675L271.202,271.675z"/>
		<path style="fill-rule:evenodd;clip-rule:evenodd;fill:#CCCCCC;" d="M203.638,271.675c5.67,0,10.276,4.725,10.276,10.395v0.118
			h-20.671v-0.118C193.244,276.4,197.85,271.675,203.638,271.675L203.638,271.675z"/>
		<path style="fill-rule:evenodd;clip-rule:evenodd;fill:#CCCCCC;" d="M237.42,244.153c5.67,0,10.395,4.607,10.395,10.276
			c0,5.788-4.725,10.395-10.395,10.395c-5.67,0-10.395-4.607-10.395-10.395C227.026,248.76,231.751,244.153,237.42,244.153
			L237.42,244.153z"/>
		<path style="fill-rule:evenodd;clip-rule:evenodd;fill:#DDFF63;" d="M237.42,155.563L237.42,155.563
			c21.734,0,39.57,17.718,39.57,39.57v57.76h-79.14v-57.76C197.85,173.281,215.686,155.563,237.42,155.563L237.42,155.563z"/>
		<path style="fill-rule:evenodd;clip-rule:evenodd;fill:#D5FF3F;" d="M271.557,252.894H197.85v-57.76
			c0-20.198,15.356-37.09,34.963-39.334c21.38,0.472,38.743,18.072,38.743,39.57V252.894z"/>
		<path style="fill-rule:evenodd;clip-rule:evenodd;fill:#2EBD33;" d="M212.379,223.6c9.568-19.372,40.751-19.372,50.319,0H212.379z
			"/>
		<path style="fill-rule:evenodd;clip-rule:evenodd;fill:#B3B3B3;" d="M195.133,227.144h84.574c4.961,0,9.095,4.016,9.095,8.977
			v20.198c0,4.961-4.134,9.095-9.095,9.095h-84.574c-4.961,0-9.095-4.134-9.095-9.095v-20.198
			C186.038,231.16,190.172,227.144,195.133,227.144L195.133,227.144z"/>
		<path style="fill-rule:evenodd;clip-rule:evenodd;fill:#CCCCCC;" d="M195.133,227.144h84.574c4.961,0,9.095,4.016,9.095,8.977
			v11.339c-2.126,2.362-5.315,3.78-8.977,3.78h-84.81c-3.662,0-6.851-1.417-8.977-3.78v-11.339
			C186.038,231.16,190.172,227.144,195.133,227.144L195.133,227.144z"/>
		<path style="fill:#666666;" d="M184.857,235.53h6.024c1.536,0,2.717,1.299,2.717,2.717v15.946c0,1.536-1.181,2.717-2.717,2.717
			h-6.024c-1.417,0-2.599-1.181-2.599-2.717v-15.946C182.258,236.83,183.44,235.53,184.857,235.53L184.857,235.53z"/>
		<path style="fill-rule:evenodd;clip-rule:evenodd;fill:#333333;" d="M183.558,235.53h2.953c0.827,0,1.417,0.709,1.417,1.417
			v18.545c0,0.827-0.591,1.417-1.417,1.417h-2.953c-0.709,0-1.299-0.591-1.299-1.417v-18.545
			C182.258,236.239,182.849,235.53,183.558,235.53L183.558,235.53z"/>
		<path style="fill:#666666;" d="M182.14,248.996h2.008c0.472,0,0.945,0.472,0.945,0.945v3.898c0,0.472-0.472,0.827-0.945,0.827
			h-2.008c-0.591,0-0.945-0.354-0.945-0.827v-3.898C181.195,249.468,181.55,248.996,182.14,248.996L182.14,248.996z"/>
		<path style="fill:#666666;" d="M182.14,237.775h2.008c0.472,0,0.945,0.354,0.945,0.827v3.898c0,0.591-0.472,0.945-0.945,0.945
			h-2.008c-0.591,0-0.945-0.354-0.945-0.945v-3.898C181.195,238.129,181.55,237.775,182.14,237.775L182.14,237.775z"/>
		<path style="fill-rule:evenodd;clip-rule:evenodd;fill:#B3B3B3;" d="M197.142,223.6h80.558c0.472,0,0.827,0.472,0.827,0.827v1.89
			c0,0.472-0.354,0.827-0.827,0.827h-80.558c-0.472,0-0.827-0.354-0.827-0.827v-1.89C196.315,224.073,196.669,223.6,197.142,223.6
			L197.142,223.6z"/>
		<path style="fill-rule:evenodd;clip-rule:evenodd;fill:#33CC33;" d="M210.961,182.849c-1.536,8.386-1.536,22.679,1.299,26.104
			c9.45,11.812,40.987,11.812,50.555,0c2.717-3.425,2.717-17.718,1.181-26.104C261.989,172.455,212.97,172.455,210.961,182.849
			L210.961,182.849z"/>
		<path style="fill-rule:evenodd;clip-rule:evenodd;fill:#5FDE35;" d="M210.961,182.849c-1.536,8.386-1.536,22.679,1.299,26.104
			c4.725,5.906,15.001,8.859,25.278,8.859v-42.759C224.781,175.053,212.025,177.652,210.961,182.849L210.961,182.849z"/>
		<path style="fill-rule:evenodd;clip-rule:evenodd;" d="M228.916,193.362c1.299,0,2.244,1.063,2.244,2.362
			c0,1.299-0.945,2.362-2.244,2.362s-2.362-1.063-2.362-2.362C226.553,194.425,227.616,193.362,228.916,193.362L228.916,193.362z"/>
		<path style="fill-rule:evenodd;clip-rule:evenodd;" d="M246.161,193.362c1.299,0,2.244,1.063,2.244,2.362
			c0,1.299-0.945,2.362-2.244,2.362c-1.299,0-2.362-1.063-2.362-2.362C243.799,194.425,244.862,193.362,246.161,193.362
			L246.161,193.362z"/>
		<path style="fill-rule:evenodd;clip-rule:evenodd;fill:#FF8B95;" d="M216.749,201.276c2.953,0,5.315,2.362,5.315,5.315
			c0,2.953-2.362,5.315-5.315,5.315c-2.953,0-5.434-2.362-5.434-5.315C211.316,203.638,213.796,201.276,216.749,201.276
			L216.749,201.276z"/>
		<path style="fill-rule:evenodd;clip-rule:evenodd;fill:#FF8B95;" d="M258.327,201.276c2.953,0,5.315,2.362,5.315,5.315
			c0,2.953-2.362,5.315-5.315,5.315c-2.953,0-5.434-2.362-5.434-5.315C252.894,203.638,255.374,201.276,258.327,201.276
			L258.327,201.276z"/>
		<path style="fill-rule:evenodd;clip-rule:evenodd;" d="M240.019,204.111c3.071,0,5.552,2.48,5.552,5.552h-10.985
			C234.585,206.591,237.066,204.111,240.019,204.111L240.019,204.111z"/>
		<path style="fill-rule:evenodd;clip-rule:evenodd;fill:#5FDE35;" d="M226.199,165.722c1.417,0,2.481,1.181,2.481,2.599
			c0,1.299-1.063,2.48-2.481,2.48s-2.481-1.181-2.481-2.48C223.718,166.903,224.781,165.722,226.199,165.722L226.199,165.722z"/>
		<polygon style="fill-rule:evenodd;clip-rule:evenodd;fill:#5FDE35;" points="225.608,168.911 226.199,168.911 226.79,168.911 
			227.262,180.369 226.199,180.369 225.136,180.369 		"/>
		<path style="fill-rule:evenodd;clip-rule:evenodd;fill:#33CC33;" d="M248.878,165.722c1.299,0,2.48,1.181,2.48,2.599
			c0,1.299-1.181,2.48-2.48,2.48c-1.417,0-2.599-1.181-2.599-2.48C246.279,166.903,247.46,165.722,248.878,165.722L248.878,165.722z
			"/>
		<polygon style="fill-rule:evenodd;clip-rule:evenodd;fill:#33CC33;" points="248.287,168.911 248.878,168.911 249.35,168.911 
			249.941,180.369 248.878,180.369 247.697,180.369 		"/>
		<path style="fill-rule:evenodd;clip-rule:evenodd;fill:#A43737;" d="M211.788,212.97L211.788,212.97
			c1.181,0,2.244,1.063,2.244,2.244v4.725c0,1.299-1.063,2.244-2.244,2.244l0,0c-1.299,0-2.362-0.945-2.362-2.244v-4.725
			C209.426,214.033,210.489,212.97,211.788,212.97L211.788,212.97z"/>
		<path style="fill-rule:evenodd;clip-rule:evenodd;fill:#A43737;" d="M262.934,212.97L262.934,212.97
			c1.181,0,2.244,1.063,2.244,2.244v4.725c0,1.299-1.063,2.244-2.244,2.244l0,0c-1.299,0-2.362-0.945-2.362-2.244v-4.725
			C260.572,214.033,261.635,212.97,262.934,212.97L262.934,212.97z"/>
		<path style="fill-rule:evenodd;clip-rule:evenodd;fill:#5FDE35;" d="M211.788,215.214c2.953,0,5.434,2.481,5.434,5.434
			c0,3.071-2.481,5.434-5.434,5.434c-3.071,0-5.434-2.362-5.434-5.434C206.355,217.694,208.717,215.214,211.788,215.214
			L211.788,215.214z"/>
		<path style="fill-rule:evenodd;clip-rule:evenodd;fill:#33CC33;" d="M262.934,215.214c2.953,0,5.434,2.481,5.434,5.434
			c0,3.071-2.481,5.434-5.434,5.434c-3.071,0-5.434-2.362-5.434-5.434C257.501,217.694,259.863,215.214,262.934,215.214
			L262.934,215.214z"/>
		<path style="fill-rule:evenodd;clip-rule:evenodd;fill:#FFFFFF;" d="M262.934,168.911c2.362,0,4.252,2.008,4.252,4.37
			c0,2.362-1.89,4.252-4.252,4.252s-4.252-1.89-4.252-4.252C258.682,170.919,260.572,168.911,262.934,168.911L262.934,168.911z"/>
		<rect x="202.103" y="276.4" style="fill-rule:evenodd;clip-rule:evenodd;fill:#E6E6E6;" width="3.071" height="11.694"/>
		<rect x="265.415" y="280.652" style="fill-rule:evenodd;clip-rule:evenodd;fill:#E6E6E6;" width="11.694" height="3.071"/>
		<path style="fill-rule:evenodd;clip-rule:evenodd;fill:#FFFFFF;" d="M279.825,231.278h1.536c1.536,0,2.835,1.299,2.835,2.835l0,0
			c0,1.536-1.299,2.835-2.835,2.835h-1.536c-1.536,0-2.835-1.299-2.835-2.835l0,0C276.99,232.577,278.29,231.278,279.825,231.278
			L279.825,231.278z"/>
		<path style="fill-rule:evenodd;clip-rule:evenodd;fill:#FFFFFF;" d="M248.642,231.278h17.6c1.536,0,2.835,1.299,2.835,2.835l0,0
			c0,1.536-1.299,2.835-2.835,2.835h-17.6c-1.536,0-2.835-1.299-2.835-2.835l0,0C245.807,232.577,247.106,231.278,248.642,231.278
			L248.642,231.278z"/>
		<rect x="270.021" y="297.897" style="fill-rule:evenodd;clip-rule:evenodd;fill:#CCCCCC;" width="5.079" height="4.134"/>
	</g>
	<g>
		<rect x="74.179" y="293.763" style="fill-rule:evenodd;clip-rule:evenodd;fill:#999933;" width="342.192" height="11.339"/>
		<rect x="74.179" y="293.763" style="fill-rule:evenodd;clip-rule:evenodd;fill:#AEAE33;" width="342.192" height="5.434"/>
		<path style="fill-rule:evenodd;clip-rule:evenodd;fill:#AEAE33;" d="M378.455,282.424c-2.717,2.953-8.977,9.45-16.655,11.339
			c-9.568,2.244,20.317,3.189,20.317,4.252c0,0.472,2.362,0.472,5.197,0.236c2.835,0.236,5.079,0.236,5.079-0.236
			c0-1.063,29.884-2.008,20.317-4.252c-7.56-1.89-13.938-8.386-16.537-11.339H378.455z"/>
		<path style="fill-rule:evenodd;clip-rule:evenodd;fill:#AEAE33;" d="M346.681,287.385c-0.945,2.008-3.425,6.497-6.378,7.796
			c-3.662,1.536,7.914,2.244,7.914,2.953c0,0.354,0.827,0.354,1.89,0.118c1.181,0.236,2.008,0.236,2.008-0.118
			c0-0.709,11.576-1.417,7.914-2.953c-2.953-1.299-5.434-5.788-6.378-7.796H346.681z"/>
		<path style="fill-rule:evenodd;clip-rule:evenodd;fill:#AEAE33;" d="M151.665,287.385c-1.063,2.008-3.425,6.497-6.378,7.796
			c-3.78,1.536,7.914,2.244,7.914,2.953c0,0.354,0.827,0.354,1.89,0.118c1.181,0.236,2.008,0.236,2.008-0.118
			c0-0.709,11.576-1.417,7.914-2.953c-2.953-1.299-5.434-5.788-6.497-7.796H151.665z"/>
		<path style="fill-rule:evenodd;clip-rule:evenodd;fill:#AEAE33;" d="M103.709,281.833c-1.536,3.071-5.197,9.804-9.686,11.694
			c-5.552,2.362,11.93,3.307,11.93,4.489c0,0.472,1.299,0.472,2.953,0.236c1.654,0.236,2.953,0.236,2.953-0.236
			c0-1.181,17.364-2.126,11.812-4.489c-4.37-1.89-8.032-8.623-9.568-11.694H103.709z"/>
	</g>
	<g>
		<path style="fill-rule:evenodd;clip-rule:evenodd;fill:#185F64;" d="M92.724,172.809c14.883-14.883,38.979-14.883,53.862,0
			c14.883,14.883,14.883,38.979,0,53.862c-14.883,14.883-38.979,14.883-53.862,0C77.841,211.788,77.841,187.692,92.724,172.809
			L92.724,172.809z"/>
		<path style="fill-rule:evenodd;clip-rule:evenodd;fill:#40797D;" d="M92.724,172.809c14.883-14.883,38.979-14.883,53.862,0
			c14.883,14.883,14.883,38.979,0,53.862L92.724,172.809z"/>
		<path style="fill-rule:evenodd;clip-rule:evenodd;fill:#649296;" d="M110.914,172.691c4.37-4.252,11.339-4.252,15.592,0
			c4.252,4.37,4.252,11.34,0,15.592c-4.252,4.252-11.221,4.252-15.592,0C106.662,184.03,106.662,177.061,110.914,172.691
			L110.914,172.691z"/>
		<path style="fill-rule:evenodd;clip-rule:evenodd;fill:#40797D;" d="M103.118,224.427c1.654-1.654,4.252-1.654,5.906,0
			c1.654,1.654,1.654,4.252,0,5.906c-1.654,1.654-4.252,1.654-5.906,0S101.465,226.081,103.118,224.427L103.118,224.427z"/>
		<path style="fill-rule:evenodd;clip-rule:evenodd;fill:#649296;" d="M99.929,171.628c1.181-1.063,3.071-1.063,4.134,0
			c1.181,1.181,1.181,3.071,0,4.134c-1.063,1.181-2.953,1.181-4.134,0C98.866,174.699,98.866,172.809,99.929,171.628L99.929,171.628
			z"/>
		<path style="fill-rule:evenodd;clip-rule:evenodd;fill:#649296;" d="M139.617,184.621c2.362-2.481,6.378-2.481,8.859,0
			c2.362,2.481,2.362,6.378,0,8.859c-2.481,2.481-6.497,2.481-8.859,0C137.137,190.999,137.137,187.101,139.617,184.621
			L139.617,184.621z"/>
	</g>
	<g>
		<rect x="328.845" y="267.423" style="fill-rule:evenodd;clip-rule:evenodd;fill:#3F3F25;" width="6.26" height="26.341"/>
		<rect x="381.408" y="267.423" style="fill-rule:evenodd;clip-rule:evenodd;fill:#3F3F25;" width="6.26" height="26.341"/>
		<path style="fill-rule:evenodd;clip-rule:evenodd;fill:#00CCFF;" d="M314.316,232.459h87.881c1.89,0,3.425,1.536,3.425,3.425
			v44.885c0,1.89-1.536,3.425-3.425,3.425h-87.881c-1.89,0-3.425-1.536-3.425-3.425v-44.885
			C310.891,233.995,312.426,232.459,314.316,232.459L314.316,232.459z"/>
		<path style="fill-rule:evenodd;clip-rule:evenodd;fill:#2F9DD6;" d="M318.686,234.585h79.14c3.071,0,5.67,2.599,5.67,5.67V276.4
			c0,3.071-2.599,5.67-5.67,5.67h-79.14c-3.189,0-5.788-2.599-5.788-5.67v-36.145C312.899,237.184,315.497,234.585,318.686,234.585
			L318.686,234.585z"/>
		<path style="fill:#FFFFFF;" d="M328.727,259.745l1.89-3.425c0.591-1.181,1.063-2.362,1.654-3.662h0.118
			c-0.118,1.417-0.236,3.425-0.236,4.843v2.244H328.727z M339.357,259.745h-2.126v-11.458h-6.733l-6.969,11.812v3.78h8.623v4.489
			h5.079v-4.489h2.126V259.745z M348.689,268.722c4.489,0,7.56-3.544,7.56-10.513c0-6.851-3.071-10.395-7.56-10.395
			s-7.442,3.544-7.442,10.395C341.247,265.178,344.2,268.722,348.689,268.722L348.689,268.722z M348.689,264.588
			c-1.299,0-2.362-1.063-2.362-6.378c0-5.315,1.063-6.142,2.362-6.142c1.299,0,2.362,0.827,2.362,6.142
			C351.051,263.525,349.988,264.588,348.689,264.588L348.689,264.588z M363.099,259.745l1.772-3.425
			c0.591-1.181,1.181-2.362,1.654-3.662h0.118c0,1.417-0.118,3.425-0.118,4.843v2.244H363.099z M373.73,259.745h-2.126v-11.458
			h-6.851l-6.851,11.812v3.78h8.623v4.489h5.079v-4.489h2.126V259.745z M376.329,265.533c0,1.772,1.299,3.189,3.189,3.189
			s3.189-1.417,3.189-3.189c0-1.89-1.299-3.307-3.189-3.307S376.329,263.643,376.329,265.533L376.329,265.533z M386.487,265.533
			c0,1.772,1.417,3.189,3.189,3.189c1.89,0,3.189-1.417,3.189-3.189c0-1.89-1.299-3.307-3.189-3.307
			C387.905,262.225,386.487,263.643,386.487,265.533L386.487,265.533z"/>
	</g>
	<g>
		
			<text transform="matrix(1 0 0 1 117.3401 351.1143)" style="fill:#4D4D4D; font-family:'SourceSansPro-Light'; font-size:24.8888px; letter-spacing:1;">Oops... page not found</text>
	</g>
</g>

</svg>
